<svg width="500" height="557" viewBox="0 0 500 557" fill="none" xmlns="http://www.w3.org/2000/svg">
<path d="M497.48 145.8C483.819 62.8416 379.881 0.280273 249.667 0.280273C119.452 0.280273 15.5067 62.8536 1.85337 145.8C0.806493 151.925 0.285645 158.118 0.285645 164.467V392.2C0.285645 484.263 109.822 556.387 249.672 556.387C389.523 556.387 499.059 484.256 499.059 392.2V164.467C499.059 158.118 498.465 151.92 497.491 145.8H497.48ZM249.667 37.6069C364.579 37.6069 461.72 95.695 461.72 164.467C461.72 233.232 364.58 291.322 249.667 291.322C134.753 291.322 37.6134 233.234 37.6134 164.462C37.6134 95.6963 134.753 37.6069 249.667 37.6069Z" fill="black"/>
<path d="M249.667 75.9873C174.703 75.9873 116.013 114.815 116.013 164.394C116.013 213.973 174.701 252.873 249.667 252.873C324.632 252.873 383.32 214.045 383.32 164.466C383.32 114.887 324.632 75.9873 249.667 75.9873ZM249.667 98.3886C272.74 98.3886 294.391 102.868 312.385 110.337L274.083 148.639L225.552 100.109C233.39 99.0616 241.453 98.3886 249.667 98.3886ZM199.64 105.785L258.328 164.472L243.692 179.109L178.733 114.15C185.077 110.936 192.097 108.097 199.64 105.785ZM168.577 119.894L235.703 187.019L217.411 205.311L149.015 136.915C154.02 130.722 160.66 124.973 168.577 119.894ZM138.411 164.472C138.411 158.347 139.978 152.379 142.817 146.629L209.421 213.233L199.64 223.081C163.722 212.034 138.411 189.634 138.411 164.472ZM249.665 230.478C241.452 230.478 233.389 229.879 225.624 228.837L333.067 121.394C350.239 133.04 360.916 148.201 360.916 164.477C360.921 200.237 309.995 230.478 249.665 230.478Z" fill="black"/>
<path d="M427.667 194.854C427.667 199.229 424.125 202.771 419.75 202.771C415.381 202.771 411.839 199.229 411.839 194.854C411.839 190.484 415.38 186.942 419.75 186.942C424.125 186.942 427.667 190.484 427.667 194.854Z" fill="black"/>
<path d="M435.733 162.6C435.733 166.97 432.192 170.517 427.822 170.517C423.447 170.517 419.905 166.97 419.905 162.6C419.905 158.23 423.447 154.688 427.822 154.688C432.192 154.688 435.733 158.23 435.733 162.6Z" fill="black"/>
<path d="M424.987 124.973C424.987 129.343 421.445 132.885 417.07 132.885C412.7 132.885 409.159 129.343 409.159 124.973C409.159 120.604 412.7 117.057 417.07 117.057C421.445 117.057 424.987 120.604 424.987 124.973Z" fill="black"/>
<path d="M389.147 237.574C389.147 241.944 385.6 245.485 381.23 245.485C376.86 245.485 373.313 241.944 373.313 237.574C373.313 233.199 376.86 229.657 381.23 229.657C385.6 229.657 389.147 233.199 389.147 237.574Z" fill="black"/>
</svg>
