<svg width="500" height="557" viewBox="0 0 500 557" fill="none" xmlns="http://www.w3.org/2000/svg">
<path d="M497.48 145.8C483.819 62.8416 379.881 0.280273 249.667 0.280273C119.452 0.280273 15.5067 62.8536 1.85337 145.8C0.806493 151.925 0.285645 158.118 0.285645 164.467V392.2C0.285645 484.263 109.822 556.387 249.672 556.387C389.523 556.387 499.059 484.256 499.059 392.2V164.467C499.059 158.118 498.465 151.92 497.491 145.8H497.48ZM249.667 37.6069C364.579 37.6069 461.72 95.695 461.72 164.467C461.72 233.232 364.58 291.322 249.667 291.322C134.753 291.322 37.6134 233.234 37.6134 164.462C37.6134 95.6963 134.753 37.6069 249.667 37.6069Z" fill="black"/>
</svg>
